<?xml version="1.0" encoding="UTF-8"?>
<!-- 2021-03-05 00:15:24 Generated by QCAD 3.24.3 SVG Exporter -->
<svg width="252.5456mm" height="247.9265mm" viewBox="233.7272 -135.2133 252.5456 247.9265" version="1.1" xmlns="http://www.w3.org/2000/svg" style="stroke-linecap:round;stroke-linejoin:round;fill:none">
    <g transform="scale(1,-1)">
        <!-- Line -->
        <path d="M340,135.2133 L340,127.7 " style="stroke:#00ff00;stroke-width:0.25;"/>
        <!-- Line -->
        <path d="M380,135.2133 L380,127.7 " style="stroke:#00ff00;stroke-width:0.25;"/>
        <!-- Line -->
        <path d="M477.9796,-11.9275 L486.2728,-16.7156 " style="stroke:#00ff00;stroke-width:0.25;"/>
        <!-- Line -->
        <path d="M233.7272,-16.7156 L253.7272,-51.3566 " style="stroke:#00ff00;stroke-width:0.25;"/>
        <!-- Line -->
        <path d="M466.2728,-51.3566 L486.2728,-16.7156 " style="stroke:#00ff00;stroke-width:0.25;"/>
        <!-- Line -->
        <path d="M383.3818,127.7 L380,127.7 " style="stroke:#00ff00;stroke-width:0.25;"/>
        <!-- Line -->
        <path d="M233.7272,-16.7156 L242.0204,-11.9275 " style="stroke:#00ff00;stroke-width:0.25;"/>
        <!-- Line -->
        <path d="M340,127.7 L336.6182,127.7 " style="stroke:#00ff00;stroke-width:0.25;"/>
        <!-- Arc -->
        <path d="M477.9796,-11.9275 A120,120 0 0,1 383.3818,127.7" style="stroke:#00ff00;stroke-width:0.25;"/>
        <!-- Arc -->
        <path d="M336.6182,127.7 A120,120 0 0,1 242.0204,-11.9275" style="stroke:#00ff00;stroke-width:0.25;"/>
        <!-- Line -->
        <path d="M340,135.2133 L380,135.2133 " style="stroke:#00ff00;stroke-width:0.25;"/>
        <!-- Circle -->
        <circle cx="360.0000000000001" cy="10" r="90" style="stroke:#00ff00;stroke-width:0.25;"/>
        <!-- Arc -->
        <path d="M253.7272,-51.3566 A122.7133,122.7133 0 0,1 466.2728,-51.3566" style="stroke:#00ff00;stroke-width:0.25;"/>
    </g>
</svg>
