<?xml version="1.0" encoding="UTF-8"?>
<!-- 2021-03-01 16:33:28 Generated by QCAD 3.24.3 SVG Exporter -->
<svg width="40mm" height="423mm" viewBox="-18 -130 40 423" version="1.1" xmlns="http://www.w3.org/2000/svg" style="stroke-linecap:round;stroke-linejoin:round;fill:none">
    <g transform="scale(1,-1)">
        <!-- Line -->
        <path d="M22,-288 L22,69 " style="stroke:#000000;stroke-width:0.25;"/>
        <!-- Line -->
        <path d="M-18,-288 L-18,69 " style="stroke:#000000;stroke-width:0.25;"/>
        <!-- Line -->
        <path d="M12.9,67.4 L12.9,23.6 " style="stroke:#000000;stroke-width:0.25;"/>
        <!-- Line -->
        <path d="M-13,-293 L17,-293 " style="stroke:#000000;stroke-width:0.25;"/>
        <!-- Line -->
        <path d="M-12.1,67.4 L-12.1,23.6 " style="stroke:#000000;stroke-width:0.25;"/>
        <!-- Line -->
        <path d="M-10.5,113.8 L-10.5,76.5 " style="stroke:#000000;stroke-width:0.25;"/>
        <!-- Line -->
        <path d="M14.5,113.8 L14.5,76.5 " style="stroke:#000000;stroke-width:0.25;"/>
        <!-- Line -->
        <path d="M16.1,23.6 L16.1,67.4 " style="stroke:#000000;stroke-width:0.25;"/>
        <!-- Line -->
        <path d="M-8.9,23.6 L-8.9,67.4 " style="stroke:#000000;stroke-width:0.25;"/>
        <!-- Arc -->
        <path d="M-18,-288 A5,5 0 0,1 -13,-293" style="stroke:#000000;stroke-width:0.25;"/>
        <!-- Arc -->
        <circle cx="14.5" cy="121.9" r="1.6" style="stroke:#000000;stroke-width:0.25;"/>
        <!-- Arc -->
        <circle cx="-10.5" cy="121.9" r="1.6" style="stroke:#000000;stroke-width:0.25;"/>
        <!-- Arc -->
        <path d="M17,-293 A5,5 0 0,1 22,-288" style="stroke:#000000;stroke-width:0.25;"/>
        <!-- Arc -->
        <path d="M-8.9,23.6 A1.6,1.6 0 0,0 -12.1,23.6" style="stroke:#000000;stroke-width:0.25;"/>
        <!-- Arc -->
        <path d="M-12.1,67.4 A1.6,1.6 0 0,0 -8.9,67.4" style="stroke:#000000;stroke-width:0.25;"/>
        <!-- Arc -->
        <path d="M16.1,23.6 A1.6,1.6 0 0,0 12.9,23.6" style="stroke:#000000;stroke-width:0.25;"/>
        <!-- Arc -->
        <path d="M12.9,67.4 A1.6,1.6 0 0,0 16.1,67.4" style="stroke:#000000;stroke-width:0.25;"/>
        <!-- Line -->
        <path d="M-18,130 L22,130 " style="stroke:#000000;stroke-width:0.25;"/>
        <!-- Line -->
        <path d="M-18,130 L-18,121.3 " style="stroke:#000000;stroke-width:0.25;"/>
        <!-- Line -->
        <path d="M22,121.3 L22,130 " style="stroke:#000000;stroke-width:0.25;"/>
        <!-- Arc -->
        <path d="M-18,121.3 A7.5,7.5 0 0,1 -10.5,113.8" style="stroke:#000000;stroke-width:0.25;"/>
        <!-- Arc -->
        <path d="M-18,69 A7.5,7.5 0 0,0 -10.5,76.5" style="stroke:#000000;stroke-width:0.25;"/>
        <!-- Arc -->
        <path d="M22,69 A7.5,7.5 0 0,1 14.5,76.5" style="stroke:#000000;stroke-width:0.25;"/>
        <!-- Arc -->
        <path d="M22,121.3 A7.5,7.5 0 0,0 14.5,113.8" style="stroke:#000000;stroke-width:0.25;"/>
    </g>
</svg>
